Coordinates
version=1
nRows=12
nColumns=46
inDegrees=yes

Units are S.I. units (second, meters, Newtons, ...)
Angles are in degrees.

endheader
time	pelvis_tilt	pelvis_list	pelvis_rotation	pelvis_tx	pelvis_ty	pelvis_tz	bb_angle	bb_tx	bb_ty	bb_tz	hip_flexion_r	hip_adduction_r	hip_rotation_r	knee_angle_r	knee_angle_r_beta	ankle_angle_r	subtalar_angle_r	mtp_angle_r	crank_angle_r	hip_flexion_l	hip_adduction_l	hip_rotation_l	knee_angle_l	knee_angle_l_beta	ankle_angle_l	subtalar_angle_l	mtp_angle_l	crank_angle_l	lumbar_extension	lumbar_bending	lumbar_rotation	arm_flex_r	arm_add_r	arm_rot_r	elbow_flex_r	pro_sup_r	wrist_flex_r	wrist_dev_r	arm_flex_l	arm_add_l	arm_rot_l	elbow_flex_l	pro_sup_l	wrist_flex_l	wrist_dev_l
      5.00500000	    -34.81226701	      0.93586533	    -12.37501950	      0.41409495	      1.19705621	     -0.25628785	      0.00000000	      0.50000000	      0.00000000	      0.25000000	     74.02362655	      6.72565309	      4.36462204	     72.73090136	      1.26939370	     14.80762835	     -7.03461149	      0.00000000	      0.00000000	     44.48501255	    -15.64020063	    -10.25020073	     52.03440542	      0.90817170	    -21.34897178	      2.11176518	      0.00000000	      0.00000000	    -62.27689842	     -1.59877677	      0.67330843	     59.79266293	    -28.55755700	     44.19139960	     99.42088180	     51.10642642	      0.00000000	      0.00000000	     28.50721034	    -23.04559802	     -0.96464035	    100.80511961	     53.13709446	      0.00000000	      0.00000000
      5.01000000	    -34.43367385	      1.78389187	    -12.00403919	      0.41451212	      1.19814118	     -0.25555482	      0.00000000	      0.50000000	      0.00000000	      0.25000000	     72.59495926	      6.20995349	      5.38678786	     70.38512078	      1.22845210	     14.18429736	     -6.90432135	      0.00000000	      0.00000000	     45.27297753	    -14.91335298	    -10.18476837	     54.21314114	      0.94619781	    -21.69047563	      2.01738503	      0.00000000	      0.00000000	    -62.31621505	     -1.99451262	     -0.10484071	     59.61462044	    -28.80396854	     44.18446774	     99.36321645	     51.09828254	      0.00000000	      0.00000000	     28.59983655	    -22.96073285	     -0.83585189	    100.65655829	     53.12832304	      0.00000000	      0.00000000
      5.01500000	    -34.13848098	      2.51672626	    -11.55569731	      0.41434695	      1.19897264	     -0.25505134	      0.00000000	      0.50000000	      0.00000000	      0.25000000	     71.30655772	      5.65014620	      6.15153622	     68.02691560	      1.18729366	     12.43114631	     -8.08545270	      0.00000000	      0.00000000	     46.29123793	    -14.13622451	     -9.85796785	     56.49036564	      0.98594288	    -22.23687993	      0.69972782	      0.00000000	      0.00000000	    -62.17725943	     -2.25247394	     -0.76503855	     59.63380632	    -29.02095785	     44.29317296	     98.91852951	     51.02680451	      0.00000000	      0.00000000	     29.46880710	    -23.30986061	     -0.24419264	     99.69459909	     53.03861578	      0.00000000	      0.00000000
      5.02000000	    -33.90795144	      3.11282608	    -10.92756534	      0.41449395	      1.19946806	     -0.25515750	      0.00000000	      0.50000000	      0.00000000	      0.25000000	     70.02110881	      4.81180727	      6.61648181	     65.70470736	      1.14676348	     11.06731871	     -8.34240460	      0.00000000	      0.00000000	     47.37695278	    -13.32556466	     -9.33839287	     58.75212531	      1.02541803	    -22.33754311	      0.14080196	      0.00000000	      0.00000000	    -61.93460659	     -2.25559252	     -1.31040760	     59.54740076	    -29.41266432	     44.46923742	     98.49174484	     50.97021222	      0.00000000	      0.00000000	     29.99422230	    -23.39780186	      0.43631147	     98.83713513	     52.97974134	      0.00000000	      0.00000000
      5.02500000	    -33.66923676	      3.75190524	    -10.35387023	      0.41446218	      1.19978041	     -0.25506580	      0.00000000	      0.50000000	      0.00000000	      0.25000000	     68.72296419	      4.02833395	      7.12515102	     63.33458269	      1.10539700	      9.44058387	     -8.89995775	      0.00000000	      0.00000000	     48.43847991	    -12.53765966	     -8.97318078	     60.99870184	      1.06462819	    -22.45675555	     -0.51480294	      0.00000000	      0.00000000	    -61.58563498	     -2.32086579	     -1.64194759	     59.55814992	    -29.99235557	     44.81104377	     97.88653623	     50.89597150	      0.00000000	      0.00000000	     30.91009584	    -23.49272634	      1.74374806	     97.30371738	     52.88529727	      0.00000000	      0.00000000
      5.03000000	    -33.30268727	      4.37020722	     -9.95464796	      0.41439453	      1.19995868	     -0.25466284	      0.00000000	      0.50000000	      0.00000000	      0.25000000	     67.31195642	      3.36378502	      7.68214103	     61.00894903	      1.06480703	      7.70513708	     -9.38754082	      0.00000000	      0.00000000	     49.31008236	    -11.92571555	     -8.82464675	     63.29063564	      1.10462998	    -22.15830423	     -0.92261006	      0.00000000	      0.00000000	    -61.30008504	     -2.64110598	     -1.77156355	     59.41222157	    -30.81294345	     45.08335001	     97.46654630	     50.84634590	      0.00000000	      0.00000000	     31.97279622	    -23.52360432	      3.24563599	     95.74077831	     52.81218560	      0.00000000	      0.00000000
      5.03500000	    -32.88477039	      5.12949272	     -9.59061849	      0.41456676	      1.19992739	     -0.25441698	      0.00000000	      0.50000000	      0.00000000	      0.25000000	     65.88772132	      2.49810370	      8.22454729	     58.76201668	      1.02559067	      6.26384913	     -8.90899592	      0.00000000	      0.00000000	     50.07618346	    -11.22819269	     -8.88175634	     65.58572663	      1.14468687	    -21.54908122	     -1.32967810	      0.00000000	      0.00000000	    -61.12223104	     -3.02260905	     -2.39900277	     59.12060303	    -31.21205662	     45.16863881	     97.32416345	     50.83480564	      0.00000000	      0.00000000	     32.22103502	    -23.49904636	      3.63056764	     95.36539935	     52.79631970	      0.00000000	      0.00000000
      5.04000000	    -32.47108791	      5.82433162	     -9.22552682	      0.41455044	      1.19953333	     -0.25418404	      0.00000000	      0.50000000	      0.00000000	      0.25000000	     64.46048582	      1.65363742	      8.72811943	     56.59860343	      0.98783198	      4.92640394	     -8.69503594	      0.00000000	      0.00000000	     50.91445578	    -10.60231607	     -8.91197750	     67.94583230	      1.18587849	    -21.01405478	     -1.66317126	      0.00000000	      0.00000000	    -60.96189630	     -3.40697794	     -3.04034165	     58.97089149	    -31.66096888	     45.29210620	     97.12767820	     50.81824418	      0.00000000	      0.00000000	     32.37087707	    -23.51160043	      3.99282236	     94.90511502	     52.76353341	      0.00000000	      0.00000000
      5.04500000	    -32.08666759	      5.98217140	     -8.78194760	      0.41435945	      1.19902012	     -0.25405117	      0.00000000	      0.50000000	      0.00000000	      0.25000000	     62.84582019	      1.04843412	      8.59002730	     54.20581980	      0.94607003	      2.67085890	     -9.76155202	      0.00000000	      0.00000000	     51.89154581	    -10.37125703	     -8.48731910	     70.46432603	      1.22983449	    -20.09725080	     -1.88134404	      0.00000000	      0.00000000	    -60.44466732	     -3.54455434	     -0.66080122	     57.25605826	    -34.93771975	     44.23424311	     98.08930566	     50.81503566	      0.00000000	      0.00000000	     36.23783951	    -22.24959595	      9.29587436	     89.89174175	     52.65037697	      0.00000000	      0.00000000
      5.05000000	    -31.73365044	      6.30015220	     -8.49567731	      0.41445461	      1.19835469	     -0.25405506	      0.00000000	      0.50000000	      0.00000000	      0.25000000	     61.24332678	      0.31395168	      8.46121896	     51.82264102	      0.90447571	      1.05063219	     -9.46484996	      0.00000000	      0.00000000	     52.79691592	    -10.10152136	     -8.31331512	     72.86273764	      1.27169467	    -19.14029653	     -2.08040091	      0.00000000	      0.00000000	    -60.06938852	     -3.71548486	     -0.84588419	     56.96729858	    -35.19415568	     44.35805639	     97.40387301	     50.69290358	      0.00000000	      0.00000000	     36.66261363	    -22.10706515	     10.20548750	     88.90491695	     52.60917010	      0.00000000	      0.00000000
      5.05500000	    -31.28912367	      7.01000629	     -8.01002917	      0.41460629	      1.19732194	     -0.25374504	      0.00000000	      0.50000000	      0.00000000	      0.25000000	     59.68931811	     -0.81754070	      8.58445649	     49.71055453	      0.86761285	     -0.16730075	     -8.78492370	      0.00000000	      0.00000000	     53.59515196	     -9.40798387	     -8.34520130	     75.13188170	      1.31129871	    -18.21607760	     -2.34216790	      0.00000000	      0.00000000	    -59.79808399	     -4.02797909	     -1.53283818	     56.44710387	    -35.38805980	     44.41075370	     97.21888020	     50.66324225	      0.00000000	      0.00000000	     36.75710245	    -22.09204854	     10.48269897	     88.57270253	     52.56988180	      0.00000000	      0.00000000
      5.06000000	    -30.76616701	      7.26749337	     -7.43253124	      0.41478825	      1.19636832	     -0.25385802	      0.00000000	      0.50000000	      0.00000000	      0.25000000	     57.81689151	     -1.77760916	      8.31168676	     47.46075094	      0.82834637	     -1.48104864	     -8.60958503	      0.00000000	      0.00000000	     54.43348133	     -8.91633084	     -7.90094398	     77.50304976	      1.35268340	    -17.18562249	     -2.37426448	      0.00000000	      0.00000000	    -59.45131758	     -4.03641635	     -1.20354795	     55.61185243	    -36.08391535	     44.03157880	     96.58200775	     50.50057044	      0.00000000	      0.00000000	     38.27490265	    -22.01739448	     13.16659874	     86.04279283	     52.49558757	      0.00000000	      0.00000000
